<svg version="1.2" xmlns="http://www.w3.org/2000/svg" viewBox="0 0 40 40" width="40" height="40">
	<title>ChatUniTest LOGO</title>
	<style>
		.s0 { opacity: 0;fill: #ffffff } 
		.s1 { fill: none } 
		.s2 { fill: #de2910 } 
		.s3 { fill: #ffde00 } 
	</style>
	<g id="Layer">
	</g>
	<path id="Layer" class="s0" d="m-217-158.2h480v360h-480z"/>
	<g id="Layer">
		<g id="Layer">
			<g id="Layer">
				<path id="Layer" class="s1" d="m4.8 1h36.4v41.6h-36.4z"/>
				<g id="Layer">
					<g id="Layer">
						<g id="Layer">
							<g id="Layer">
								<g id="Layer">
									<path id="Layer" fill-rule="evenodd" class="s2" d="m33 26.5c-1.1 3.8-3.9 6.9-7.5 8.3-3.6 1.5-7.7 1.1-11-1-3.4-2.1-5.5-5.7-5.9-9.6-0.3-4 1.2-7.9 4.1-10.6q0.8-0.7 1.6-1.2 0.9-0.5 1.9-0.9 1-0.4 2-0.6 1-0.2 2-0.3 1-0.1 2-0.1 1 0 1.9 0.1 1 0.1 2 0.3 1 0.2 1.9 0.5c1.8 0.7 3.6 1.4 5.6 2.1l-3.5 2.9c-1-3.5-6-4.8-10-4.3q-0.8 0.1-1.6 0.3-0.8 0.2-1.5 0.5-0.8 0.4-1.5 0.8-0.6 0.4-1.2 1c-2.6 2.1-4 5.4-3.9 8.8 0.2 3.4 1.9 6.5 4.6 8.4 2.7 1.9 6.2 2.4 9.4 1.3 3.1-1 5.6-3.5 6.6-6.7z"/>
									<path id="Layer" fill-rule="evenodd" class="s2" d="m36.8 26.5c-1 5.1-4.5 9.4-9.2 11.5-4.7 2.2-10.1 1.9-14.6-0.7-4.4-2.6-7.4-7.2-8-12.4-0.6-5.3 1.3-10.5 5-14 3.9-3.7 8.7-4.4 13.8-3.9 5.2 0.5 9.7 1.2 14.7-0.1l-3 4.2c-3.3-0.3-6.8-1.3-10.1-2q-0.9-0.2-1.9-0.3-0.9-0.1-1.8-0.1-0.9 0-1.8 0-0.9 0.1-1.9 0.2-0.9 0.2-1.8 0.5-0.9 0.3-1.8 0.7-0.9 0.4-1.7 1-0.8 0.6-1.5 1.2-1.1 1-1.9 2.3-0.9 1.2-1.4 2.6-0.6 1.3-0.9 2.8-0.3 1.5-0.3 3c0 3.5 1.3 7 3.6 9.6 2.3 2.7 5.5 4.4 9 4.8 3.5 0.5 7-0.4 9.9-2.4 2.8-2.1 4.9-5.1 5.7-8.5z"/>
									<path id="Layer" fill-rule="evenodd" class="s3" d="m7.2 1.5l1.4-0.5c5.8 3.1 13.8 3.6 19.5 2.9l1.7 2.2q-2.9 0.3-5.8 0.1-2.9-0.2-5.8-0.7-2.9-0.6-5.7-1.6-2.7-1-5.3-2.4z"/>
								</g>
							</g>
						</g>
					</g>
				</g>
			</g>
		</g>
	</g>
</svg>