<svg xmlns="http://www.w3.org/2000/svg" xmlns:xlink="http://www.w3.org/1999/xlink" width="16" height="16"
     viewBox="0 0 16 16" fill="none">
    <g opacity="1" transform="translate(0 0)  rotate(0)">
        <g opacity="1" transform="translate(0 0)  rotate(0)">
            <g opacity="1" transform="translate(0 0)  rotate(0)">
                <g opacity="1" transform="translate(0 0)  rotate(0)">
                    <g opacity="1" transform="translate(0 0)  rotate(0)">
                        <g opacity="1" transform="translate(0 0)  rotate(0)">
                            <g opacity="1" transform="translate(0 0)  rotate(0)">
                                <g opacity="1" transform="translate(1.8992919921875 0.3756103515625)  rotate(0)">
                                    <path id="Layer" fill-rule="evenodd" style="fill:#DE2910" opacity="1"
                                          d="M10.9158,9.57799c-0.43,1.43001 -1.50996,2.59001 -2.90996,3.12001c-1.4,0.56 -2.99,0.41 -4.27,-0.38c-1.32,-0.79 -2.14,-2.14 -2.3,-3.60001c-0.11,-1.51 0.47,-2.97 1.6,-3.99c0.2,-0.17 0.41,-0.32 0.62,-0.45c0.23,-0.12 0.48,-0.23 0.74,-0.33c0.26,-0.1 0.51,-0.18 0.77,-0.23c0.26,-0.05 0.52,-0.09 0.78,-0.11c0.26,-0.03 0.52,-0.04 0.78,-0.04c0.26,0 0.5,0.01 0.73,0.04c0.26,0.02 0.52,0.06 0.78,0.11c0.26,0.05 0.51,0.11 0.74,0.19c0.7,0.26 1.39996,0.52 2.16996,0.79l-1.35996,1.09c-0.38,-1.32 -2.33,-1.81 -3.88,-1.62c-0.21,0.03 -0.41,0.06 -0.62,0.11c-0.21,0.05 -0.4,0.12 -0.58,0.19c-0.21,0.1 -0.4,0.2 -0.59,0.3c-0.15,0.1 -0.31,0.23 -0.46,0.38c-1.01,0.79 -1.56,2.03 -1.52,3.3c0.08,1.28 0.74,2.44001 1.79,3.16001c1.05,0.71 2.41,0.9 3.65,0.49c1.2,-0.38 2.18,-1.32 2.55996,-2.52001z"></path>
                                    <path id="Layer" fill-rule="evenodd" style="fill:#DE2910" opacity="1"
                                          d="M12.39,9.57983c-0.39,1.90997 -1.75,3.52997 -3.57,4.31997c-1.83,0.82 -3.92,0.71 -5.67,-0.27c-1.71,-0.97 -2.87,-2.7 -3.11,-4.64997c-0.23,-1.99 0.51,-3.95 1.94,-5.26c1.52,-1.39 3.38,-1.65 5.36,-1.47c2.02,0.19 3.77,0.45 5.71,-0.03l-1.16,1.57c-1.28,-0.11 -2.64,-0.48 -3.93,-0.75c-0.23,-0.05 -0.47,-0.09 -0.73,-0.11c-0.24,-0.03 -0.47,-0.04 -0.7,-0.04c-0.24,0 -0.47,0 -0.7,0c-0.23,0.03 -0.48,0.05 -0.74,0.08c-0.23,0.05 -0.47,0.11 -0.7,0.19c-0.23,0.07 -0.46,0.16 -0.7,0.26c-0.23,0.1 -0.45,0.22 -0.66,0.37c-0.2,0.15 -0.4,0.3 -0.58,0.45c-0.28,0.25 -0.53,0.54 -0.74,0.87c-0.23,0.3 -0.41,0.62 -0.54,0.97c-0.16,0.33 -0.27,0.68 -0.35,1.06c-0.08,0.37 -0.12,0.75 -0.12,1.12c0,1.32 0.51,2.62997 1.4,3.60997c0.89,1.01 2.14,1.65 3.5,1.8c1.36,0.19 2.71,-0.15 3.84,-0.9c1.09,-0.79 1.9,-1.92 2.21,-3.18997z"></path>
                                    <path id="Layer" fill-rule="evenodd" style="fill:#FFDE00" opacity="1"
                                          d="M0.89685,0.19l0.54,-0.19c2.26,1.16 5.36,1.35 7.58,1.09l0.66,0.83c-0.75,0.07 -1.5,0.08 -2.26,0.03c-0.75,-0.05 -1.5,-0.13 -2.25,-0.26c-0.75,-0.15 -1.49,-0.35 -2.21,-0.6c-0.7,-0.25 -1.39,-0.55 -2.06,-0.9z"></path>
                                </g>
                            </g>
                        </g>
                    </g>
                </g>
            </g>
        </g>
    </g>
</svg>